<svg xmlns="http://www.w3.org/2000/svg" width="20" height="21" viewBox="0 0 20 21"><g><g opacity=".6"><g opacity=".6"><g opacity=".6"><g opacity=".6"><path fill="#454142" d="M6.484 11.253L3.906 9.69v3.125h5.157V9.69z"/></g></g></g><g opacity=".6"><g opacity=".6"><g opacity=".6"><path fill="#454142" d="M14.14 4.417V16.8H12.97V4.417a2.933 2.933 0 0 1 3.515-2.871 2.935 2.935 0 0 0-2.343 2.87zm-3.906.976h-7.5V3.831h7.5zm0 8.594h-7.5V8.518h7.5zM4.102.315A4.106 4.106 0 0 0 0 4.417v15.898h1.172v-2.344h10.625v2.344h1.172v-2.344h5.86v2.344H20V4.417A4.106 4.106 0 0 0 15.898.315z"/></g></g></g></g></g></svg>