<svg xmlns="http://www.w3.org/2000/svg" width="20" height="21" viewBox="0 0 20 21"><g><g opacity=".6"><g opacity=".6"><path fill="#454142" d="M7.031 5.628a2.346 2.346 0 0 0-2.343-2.344 2.346 2.346 0 0 0-2.344 2.344v11.758a2.346 2.346 0 0 0 2.344 2.343 2.346 2.346 0 0 0 2.343-2.343z"/></g><g opacity=".6"><path fill="#454142" d="M10.586 8.596h5.86v1.172h-5.86z"/></g><g opacity=".6"><path fill="#454142" d="M17.617 10.354a.586.586 0 0 1-.586.586H10a.586.586 0 0 1-.586-.586V8.011c0-.324.262-.586.586-.586h7.031c.324 0 .586.262.586.586zm-1.758 2.93a.586.586 0 1 1 0-1.172.586.586 0 0 1 0 1.172zm0 2.344a.586.586 0 1 1 0-1.172.586.586 0 0 1 0 1.172zm0 2.343a.586.586 0 1 1 0-1.171.586.586 0 0 1 0 1.171zm-2.343-4.687a.586.586 0 1 1 0-1.172.586.586 0 0 1 0 1.172zm0 2.344a.586.586 0 1 1 0-1.172.586.586 0 0 1 0 1.172zm0 2.343a.586.586 0 1 1 0-1.171.586.586 0 0 1 0 1.171zm-2.344-4.687a.586.586 0 1 1 0-1.172.586.586 0 0 1 0 1.172zm0 2.344a.586.586 0 1 1 0-1.172.586.586 0 0 1 0 1.172zm0 2.343a.586.586 0 1 1 0-1.171.586.586 0 0 1 0 1.171zM8.144 5.041c.032.192.06.386.06.587v11.758c0 1.223-.63 2.3-1.58 2.93h12.79a.586.586 0 0 0 .586-.587V5.628a.586.586 0 0 0-.586-.586z"/></g><g opacity=".6"><path fill="#454142" d="M14.688 2.659h-2.344a.586.586 0 1 1 0-1.172h2.344a.586.586 0 1 1 0 1.172zM17.03.315H10a.586.586 0 0 0-.586.586v2.93h8.203V.9a.586.586 0 0 0-.586-.586z"/></g><g opacity=".6"><path fill="#454142" d="M1.172 17.386V5.628c0-.2.027-.395.06-.586H.585A.586.586 0 0 0 0 5.628v14.101c0 .324.262.586.586.586H2.75a3.512 3.512 0 0 1-1.58-2.93z"/></g></g></g></svg>