<svg xmlns="http://www.w3.org/2000/svg" width="203" height="56" viewBox="0 0 203 56"><g><g><g><g><g><path fill="#233039" d="M36.437 5.526c.056-.609-.773-.622-1.145-.392-.474.293-.678.976-.905 1.456a57.512 57.512 0 0 0-1.543 3.603c-.883 2.255-1.655 4.55-2.454 6.833-1.504 4.307-3.093 8.643-5.549 12.516a27.247 27.247 0 0 1-2.232 3.05c-.826.975-1.716 1.997-2.912 2.515-.16.07-.354.265-.227.444.13.184.457.125.622.051 1.013-.439 1.84-1.18 2.581-1.982a26.238 26.238 0 0 0 2.048-2.522c1.268-1.762 2.329-3.662 3.254-5.623 1.867-3.958 3.186-8.143 4.65-12.26a90.976 90.976 0 0 1 1.494-3.95 51.015 51.015 0 0 1 1.27-2.866c.069-.146.14-.288.212-.434l.107-.217c.012-.028.028-.053.04-.081.113-.14.029-.16-.25-.059-.035.449.903.306.94-.082z"/></g></g></g><g><g><g><path fill="#233039" d="M30.441 14.812c-.334-1.56.204-3.173 1.135-4.43.99-1.336 2.382-2.313 3.782-3.177a64.908 64.908 0 0 1 6.437-3.492c.166-.079.324-.255.426-.061.174.324.212.78.278 1.14.087.464.15.933.189 1.405.285 3.565-.745 7.1-1.938 10.418-1.133 3.147-2.324 6.315-3.864 9.288-.852 1.648-1.839 3.226-3.02 4.66-.907 1.101-2.494 2.828-4.075 1.996-.405-.211-1.05.38-.525.656 1.568.824 3.338-.225 4.46-1.324 1.252-1.226 2.26-2.734 3.15-4.233 1.841-3.109 3.131-6.524 4.391-9.9 1.352-3.62 2.614-7.47 2.375-11.387-.056-.921-.179-1.854-.426-2.747-.097-.35-.26-.658-.633-.765-.5-.143-.992.155-1.43.362-1.78.85-3.52 1.775-5.216 2.78-1.747 1.033-3.532 2.122-4.85 3.695-1.235 1.472-1.985 3.435-1.574 5.358.102.462 1.028.22.928-.242z"/></g></g></g><g><g><g><path fill="#233039" d="M25.445 27.959a17.109 17.109 0 0 1 5.045-2.915c1.757-.643 3.675-1.056 5.552-.898 1.076.092 2.124.41 3.03 1.005.15.1.443 0 .594-.056.048-.018.41-.169.278-.258-1.796-1.175-4.035-1.244-6.093-.94-2.157.315-4.264 1.04-6.182 2.07a18.464 18.464 0 0 0-3.055 2.066c-.163.135.145.15.217.145.204-.013.451-.084.614-.22z"/></g></g></g><g><g><g><path fill="#233039" d="M40.663 32.167c-.148-.429-.684-.508-1.066-.373-.212.074-.426.187-.559.373a.92.92 0 0 0-.155.362c-.026.117-.018.24-.005.36.025.232.125.448.224.655.01.048.036.084.074.115a.262.262 0 0 0 .123.079.613.613 0 0 0 .351.007.583.583 0 0 0 .301-.18c.051-.067.115-.18.074-.266-.107-.222-.211-.454-.23-.704l.008.09a.786.786 0 0 1 .029-.268c-.008.03-.018.058-.026.089a.497.497 0 0 1 .059-.13l-.054.084a.53.53 0 0 1 .069-.082c-.025.026-.054.051-.079.077a.557.557 0 0 1 .087-.066c-.033.02-.07.04-.102.06a.874.874 0 0 1 .11-.053l-.12.044a.698.698 0 0 1 .104-.028c-.04.007-.084.015-.125.02a.721.721 0 0 1 .105-.008l-.12-.002c.03 0 .058.005.086.01l-.107-.026a.415.415 0 0 1 .08.028l-.09-.045a.307.307 0 0 1 .069.048 1.576 1.576 0 0 1-.066-.064c.023.023.04.049.056.077l-.038-.082a.31.31 0 0 1 .017.044c.074.214.355.257.549.198a.583.583 0 0 0 .3-.18c.047-.072.1-.171.067-.263z"/></g></g></g><g><g><g><path fill="#233039" d="M74.383 11.953a37.437 37.437 0 0 0 7.587-3.682 36.176 36.176 0 0 0 4.978-3.793c.49-.446.992-.895 1.331-1.471.54-.916.345-2.023-.604-2.558-.852-.48-1.94-.513-2.887-.385-1.43.194-2.856.597-4.251.966a78.905 78.905 0 0 0-4.435 1.314 97.294 97.294 0 0 0-8.539 3.27c-1.415.616-2.82 1.262-4.213 1.93-1.226.589-2.45 1.19-3.6 1.923-2.171 1.382-4.06 3.432-4.306 6.102-.107 1.179.158 2.38.86 3.344.648.893 1.601 1.505 2.621 1.89 2.38.892 5.099.747 7.582.56a42.64 42.64 0 0 0 11.321-2.425 82.427 82.427 0 0 0-.477-.471c-4.21 4.483-8.42 8.987-12.03 13.978-1.76 2.433-3.424 4.945-5.409 7.207a40.887 40.887 0 0 1-6.36 5.863c-1.918 1.42-3.953 2.662-6.024 3.846-2.236 1.277-4.488 2.466-6.898 3.392-2.602 1-5.323 1.752-8.08 2.175-2.772.423-5.562.449-8.35.163-4.873-.502-9.634-1.867-14.146-3.754a75.994 75.994 0 0 1-8.27-4.067c-.168-.095-.439-.212-.561-.365-.102-.128-.015-.15.16-.158.263-.013.539.053.801.074.383.03.768.048 1.15.069a123.3 123.3 0 0 0 14.07-.046 122.782 122.782 0 0 0 18.518-2.553c6.042-1.309 11.94-3.15 17.826-5.024 5.823-1.857 11.648-3.731 17.615-5.068a90.141 90.141 0 0 1 4.433-.88c.19-.033.43-.24.374-.45-.063-.238-.362-.238-.55-.205-6.215 1.074-12.272 2.859-18.28 4.751-5.996 1.89-11.967 3.89-18.072 5.404a120.862 120.862 0 0 1-19.02 3.13 122.051 122.051 0 0 1-14.498.346c-.811-.03-1.625-.069-2.436-.114-.622-.036-1.275-.161-1.9-.13-.474.022-.949.226-1.14.69-.184.45.212.717.551.931 1.005.633 2.078 1.181 3.137 1.717 1.04.525 2.094 1.03 3.15 1.525 3.947 1.849 8.089 3.302 12.363 4.187 2.834.587 5.73.919 8.628.898 2.8-.02 5.598-.472 8.301-1.173a42.57 42.57 0 0 0 7.947-2.933c2.167-1.058 4.271-2.303 6.322-3.573 2.239-1.385 4.381-2.922 6.35-4.674 2.293-2.043 4.323-4.336 6.144-6.807 1.859-2.52 3.606-5.113 5.572-7.554 1.982-2.464 4.09-4.823 6.235-7.143a493.739 493.739 0 0 1 3.155-3.377c.29-.309-.196-.574-.477-.472a41.702 41.702 0 0 1-8.296 2.084c-2.548.362-5.25.627-7.816.296-2.066-.268-4.305-1.15-4.981-3.32-.735-2.357.546-4.816 2.31-6.333 1.964-1.688 4.476-2.724 6.805-3.798 2.57-1.183 5.18-2.285 7.837-3.254a80.878 80.878 0 0 1 8.061-2.491c1.191-.299 2.44-.691 3.672-.75.758-.036 1.89.046 2.283.826.581 1.158-.913 2.25-1.65 2.897a35.897 35.897 0 0 1-11.678 6.865c-.183.064-.436.217-.375.452.067.196.378.25.559.186z"/></g></g></g><g><g><g><path fill="#233039" d="M84.928 23.493c-1.13 1.145-2.277 2.308-3.09 3.71-.35.603-.687 1.253-.766 1.954-.061.53.005 1.156.446 1.518.602.492 1.505.321 2.206.199a11.46 11.46 0 0 0 2.507-.74c1.39-.594 2.635-1.459 3.864-2.328 1.382-.977 2.777-1.972 4.394-2.517.12-.041.373-.192.255-.342-.12-.153-.472-.038-.607.008-2.688.91-4.738 2.935-7.176 4.307-.625.352-1.275.653-1.961.867a9.258 9.258 0 0 1-1.138.28c-.352.064-.77.164-1.13.087-.624-.135-.793-.829-.75-1.38.05-.63.325-1.224.628-1.77.814-1.463 2.002-2.67 3.17-3.85.158-.16-.135-.237-.242-.24a.822.822 0 0 0-.61.237z"/></g></g></g><g><g><g><path fill="#233039" d="M89.141 27.75c.125.183.008.428-.066.612-.097.24-.225.49-.247.75-.072.844.925.816 1.502.742a14.936 14.936 0 0 0 5.202-1.668l-.472.038c.102.048.054.354.049.434-.015.216-.038.433-.005.65.066.438.42.711.818.852.467.165.998.19 1.487.224a14.577 14.577 0 0 0 8.169-1.864c-.171-.16-.34-.322-.51-.48-.63.526-1.395.773-2.199.885-.813.113-1.657.153-2.478.13-.76-.02-1.61-.15-2.1-.795-.504-.666-.476-1.6-.206-2.352.14-.387.332-.752.543-1.107.115-.193.237-.385.36-.573-.043.066.145-.22.048-.077a14.332 14.332 0 0 1 .592-.79 47.927 47.927 0 0 1 1.655-1.946 117.683 117.683 0 0 1 4.685-4.955c1.52-1.523 3.07-3.03 4.733-4.4.301-.25.61-.492.924-.724.132-.1.267-.194.405-.288.061-.041.125-.084.189-.123.03-.017.058-.038.089-.056.071-.043-.071.041.04-.025.103-.059.205-.112.312-.163.043-.02.21-.072.038-.02.046-.014.097-.024.14-.044.077-.033-.107-.026-.002.002.168.049.311-.023.454.123.268.27.201.829.155 1.168-.234 1.657-1.642 2.897-2.823 3.945-1.242 1.102-2.512 2.175-3.703 3.333-1.14 1.11-2.203 2.303-3.042 3.657-.421.679-.778 1.395-1.046 2.145-.242.679-.63 1.632.27 1.977.707.27 1.61.05 2.316-.118.854-.204 1.678-.52 2.502-.823.798-.294 1.607-.59 2.446-.745.382-.071.775-.11 1.163-.097.17.005.415-.01.57.061.223.1.167.367.144.566-.192 1.775 1.3 2.898 2.894 3.219.926.186 1.903.176 2.841.15.946-.025 1.905-.15 2.78-.53.701-.306 1.352-.786 1.78-1.426.207-.306.413-.683.42-1.063.011-.452-.323-.714-.728-.819-.9-.232-1.916-.234-2.841-.23-.975.008-1.941.108-2.9.281a16.03 16.03 0 0 0-2.686.735c-.193.071-.51.267-.339.517.26.378.681.595 1.138.605.219.005.502-.059.602-.283.086-.197-.08-.383-.281-.388-.273-.005-.459-.117-.612-.342-.112.174-.224.345-.34.518a15.695 15.695 0 0 1 5.68-.97c.464.009.929.042 1.39.093.378.04 1.084-.005.956.55-.173.753-.9 1.332-1.563 1.638-.847.39-1.808.439-2.726.444-.928.007-1.905.01-2.79-.301-.73-.258-1.408-.796-1.668-1.546-.133-.387-.074-.719-.056-1.117.02-.428-.14-.775-.564-.923-.375-.13-.818-.12-1.209-.115-.446.008-.89.072-1.328.16-.855.174-1.673.478-2.487.779-.808.298-1.62.604-2.46.795-.38.087-.786.169-1.176.161-.125-.002-.276-.013-.383-.082-.204-.13-.133-.377-.082-.576.804-3.134 3.308-5.557 5.64-7.635 1.244-1.11 2.593-2.153 3.71-3.395.556-.62 1.068-1.329 1.339-2.127.222-.655.428-1.663-.059-2.257-.548-.67-1.558-.4-2.193-.038-.645.37-1.237.834-1.811 1.303-1.678 1.377-3.244 2.897-4.78 4.427a117.84 117.84 0 0 0-4.758 5.02c-1.18 1.326-2.461 2.708-3.216 4.335-.352.757-.538 1.614-.326 2.438.201.78.767 1.354 1.512 1.637.76.286 1.602.28 2.4.26.854-.023 1.711-.069 2.55-.25.788-.173 1.548-.492 2.17-1.012.429-.357-.14-.691-.51-.48-2.494 1.421-5.46 2.056-8.314 1.648-.244-.036-.556-.084-.721-.288-.169-.207-.105-.508-.09-.75.016-.224.031-.474-.084-.678a.646.646 0 0 0-.839-.266c-.676.296-1.31.653-2.015.896-.698.242-1.417.43-2.147.558-.22.038-.441.069-.663.094-.115.013-.334.085-.439.031-.168-.084-.079-.311-.028-.449.169-.461.48-.964.158-1.433-.24-.332-1.122.023-.849.416z"/></g></g></g><g><g><g><path fill="#233039" d="M122.983 25.743c.064.454-.507.652-.803.88-.337.257-.512.62-.464 1.048.12 1.07 1.234 1.43 2.165 1.392 2.24-.092 4.336-1.31 6.004-2.721.976-.826 1.864-1.752 2.741-2.68-.29.043-.579.089-.87.132-.867 1.9-1.734 3.797-2.6 5.697-.08.176.655-.015.713-.045 1.992-.98 3.984-1.962 5.976-2.94l.74-.366c.04-.02.308-.117.315-.155-.017.087-.158-.015-.137.081.005.018.081.074.097.097.165.258.017.691-.029.964-.135.816.373 1.429 1.146 1.653.443.127.91.135 1.37.133.499-.006 1.001-.013 1.501-.036 1.02-.049 2.038-.171 3.015-.475.545-.168 1.64-.627 1.66.373.008.446-.107.821.033 1.262.107.334.304.633.543.888 1.258 1.336 3.211 1.112 4.767.497.867-.344 1.693-.821 2.47-1.334.67-.438 1.253-1.081.955-1.935-.286-.82-1.082-1.232-1.882-1.403a9.648 9.648 0 0 0-2.813-.181c-.844.079-1.757.352-2.326 1.015-.48.56-.612 1.382-.074 1.95.477.508 1.257.605 1.915.63 1.01.042 2.035-.055 3.043-.094 1.025-.038 2.078-.015 3.096-.165.862-.128 1.792-.421 2.359-1.125.24-.298.37-.653.375-1.033.002-.107-.921.005-.924.247-.02 1.413 1.311 2.492 2.653 2.563a3.468 3.468 0 0 0 2.18-.647c.666-.482 1.087-1.217 1.428-1.946.518-1.107.977-2.242 1.462-3.361l-.916.211-.03 1.936c-.008.408-.044.923.415 1.1.385.147.875.004 1.242-.128a2.993 2.993 0 0 0 1.13-.732c.135-.14-.123-.128-.21-.12-.178.015-.486.074-.619.211-.196.204-.418.39-.68.5.104-.043.111.01.014-.035-.048-.023-.099-.039-.142-.07-.13-.094-.192-.25-.215-.402-.06-.378-.007-.793 0-1.176.008-.444.013-.887.02-1.331.003-.145-.851.061-.915.212-.466 1.076-.915 2.162-1.4 3.23-.357.786-.816 1.704-1.617 2.123-.569.295-1.402-.11-1.864-.454-.617-.46-1.018-1.156-1.007-1.933-.309.081-.615.165-.924.247-.01.819-.68 1.461-1.461 1.589-.905.148-1.86.11-2.775.143-.948.035-1.902.104-2.853.102-.612-.003-1.316-.072-1.796-.49-.556-.485-.497-1.268-.084-1.821.556-.75 1.446-.655 2.277-.587.801.064 1.686.118 2.354.615.623.464.98 1.352.485 2.035-.217.299-.538.503-.847.691-.377.235-.76.462-1.153.671-.719.38-1.512.712-2.343.627a3.048 3.048 0 0 1-1.926-.981 2.247 2.247 0 0 1-.461-.796c-.12-.378-.074-.71-.044-1.094.14-1.76-2.685-.475-3.47-.33-.88.164-1.783.18-2.676.192-.824.013-1.854.066-2.377-.709-.222-.329-.214-.673-.148-1.05.049-.274.166-.659 0-.911-.204-.309-.68-.217-.976-.138-.495.13-.96.416-1.416.64l-6.031 2.969.714-.046 2.601-5.697c.07-.153-.77.028-.87.132-1.354 1.433-2.749 2.902-4.45 3.93-.803.487-1.703.9-2.644 1.015-.903.11-1.949-.252-2.064-1.277-.058-.528.238-.809.643-1.077.304-.201.686-.433.628-.851-.016-.14-.95.045-.919.255z"/></g></g></g><g><g><g><path fill="#233039" d="M166.843 27.86c-.576.693-1.01 1.512-1.201 2.397-.074.344.857.198.923-.118.181-.841.59-1.601 1.138-2.262.14-.168-.12-.27-.25-.27-.222 0-.464.076-.61.252z"/></g></g></g><g><g><g><path fill="#233039" d="M169.442 21.797c-.571-.234-1.245-.234-1.765.123a1.034 1.034 0 0 0-.418.635.897.897 0 0 0 .288.887.838.838 0 0 0 .41.171.642.642 0 0 0 .365-.061c.09-.043.2-.13.235-.227.082-.217-.077-.383-.288-.413-.018-.003-.036-.005-.054-.01.036.01.072.017.107.028a.384.384 0 0 1-.084-.034l.09.049a.462.462 0 0 1-.1-.074c.023.023.046.046.069.066a.52.52 0 0 1-.102-.145c.013.028.028.056.04.084a.739.739 0 0 1-.063-.245l.008.095a.82.82 0 0 1 .025-.26c-.008.03-.018.06-.025.091a.764.764 0 0 1 .068-.163l-.053.087a.556.556 0 0 1 .084-.107l-.08.076a.854.854 0 0 1 .093-.076c.061-.044-.118.066-.023.015l.048-.026.033-.015a.93.93 0 0 0-.068.026c.017-.005.035-.01.05-.016l.062-.015c.094-.02-.125.015-.046.008.043-.005.087-.01.13-.01h.056c-.16.002-.064-.003-.025 0 .089.007.175.022.262.045-.036-.01-.071-.017-.107-.028.087.023.171.051.253.084a.592.592 0 0 0 .351.01.575.575 0 0 0 .301-.185c.057-.077.105-.176.072-.273a.317.317 0 0 0-.199-.197z"/></g></g></g><g><g><g><path fill="#233039" d="M181.862 22.047c-.245-.1-.5-.163-.765-.163-.406 0-.821.097-1.17.303-.184.108-.345.266-.404.475a.796.796 0 0 0 .016.505.56.56 0 0 0 .438.357c.212.033.454-.023.645-.117.062-.031.164-.072.19-.143.02-.054-.024-.09-.077-.097-.026-.005-.051-.01-.077-.018-.043-.013.04.025.008.002-.013-.007-.026-.012-.039-.02a.496.496 0 0 1-.114-.104c.007.01.018.022.025.033a.689.689 0 0 1-.12-.508c-.002.015-.005.028-.005.044a.681.681 0 0 1 .118-.296c.028-.041-.02.018-.003.005.01-.008.018-.02.028-.03.01-.011.02-.019.028-.026l.028-.023c-.013.007-.023.018-.036.025.013-.002.034-.023.046-.03.06-.039-.086.04-.023.012.008-.005.016-.007.026-.012.033-.016.01-.005-.064.025.018-.005.036-.013.051-.018l-.087.028c.013-.002.023-.007.036-.01-.018.01-.138.03-.053.013.066-.013-.102.01-.051.005.017-.003.035-.003.056-.005.081-.005-.067 0-.026 0h.046c.036 0 .08.013.112.008l-.023-.003.018.003a1.758 1.758 0 0 1 .168.036c.036.01.074.02.11.032l.046.016c.056.02-.02-.008.023.01.181.074.418.015.594-.054.087-.033.194-.068.258-.14.03-.025.087-.094.023-.12z"/></g></g></g><g><g><g><path fill="#233039" d="M175.983 26.9c-1.073-.522-2.433-.742-3.618-.637-1.066.094-2.23.581-2.788 1.545-.459.79-.375 1.913.39 2.487.447.334 1.013.418 1.556.459.53.04 1.066.038 1.596-.01 1.186-.113 2.385-.51 3.244-1.365.143-.143.095-.296-.094-.352a.744.744 0 0 0-.653.176c-.548.546-1.255.84-2.012.952-.39.058-.78.079-1.176.074-.428-.008-.895-.013-1.303-.159-.76-.27-1.04-1.132-.836-1.866.216-.773.974-1.258 1.734-1.37.538-.079 1.091-.028 1.627.064.55.094 1.097.22 1.602.467.198.096.479.038.655-.08.127-.081.28-.285.076-.385z"/></g></g></g><g><g><g><path fill="#233039" d="M172.77 22.144c1.03.202 2.045.482 3.035.831.204.072.505-.028.653-.175.153-.153.087-.299-.097-.365a21.2 21.2 0 0 0-3.035-.832c-.222-.043-.49.013-.653.176-.135.136-.107.324.097.365z"/></g></g></g><g><g><g><path fill="#233039" d="M179.584 27.49c-.54 1.15.931 1.984 1.9 1.907 1.436-.115 2.344-1.262 3.076-2.374-.306.066-.612.132-.92.196-.06 1.166 1.407 1.594 2.333 1.625 1.548.048 3.147-.413 4.493-1.16l-.706.078c.395.477-.217 1.23-.048 1.788.15.505.686.73 1.157.824.653.132 1.309.053 1.964-.005a150.174 150.174 0 0 0 8.01-.949l.625-.092c.159-.023.334-.097.46.038.211.227.135.7.127.975-.026.808-.077 1.617-.255 2.407-.186.819-.51 1.61-1.071 2.244-.46.518-1.092.995-1.816.98-.217-.005-.477.035-.653.176-.127.1-.135.24.066.245 1.543.035 2.938-.801 3.74-2.107.433-.706.655-1.528.774-2.341.057-.388.09-.78.113-1.17.023-.411.074-.85.03-1.26-.092-.911-1.101-.615-1.729-.523-.956.142-1.915.273-2.877.397-1.963.25-3.935.485-5.909.633-.566.043-1.448.02-1.767-.556-.365-.658.441-1.41-.071-2.027-.125-.154-.587.012-.707.079-1.045.578-2.308.987-3.52.905-.81-.054-1.884-.48-1.835-1.446.007-.14-.398-.072-.447-.061-.176.038-.372.104-.474.26-.27.413-.553.824-.898 1.183-.25.263-.625.628-1.017.63-.778 0-1.59-.88-1.232-1.64.079-.168-.316-.135-.38-.125-.168.018-.454.092-.536.266z"/></g></g></g></g></g></svg>